<?xml version="1.0" encoding="iso-8859-1"?>
<!-- Generator: Adobe Illustrator 24.0.1, SVG Export Plug-In . SVG Version: 6.00 Build 0)  -->
<svg version="1.1" id="Layer_5" xmlns="http://www.w3.org/2000/svg" xmlns:xlink="http://www.w3.org/1999/xlink" x="0px" y="0px"
	 width="1080px" height="1080px" viewBox="0 0 1080 1080" enable-background="new 0 0 1080 1080" xml:space="preserve">
<radialGradient id="SVGID_1_" cx="551.0824" cy="432.1214" r="680.8029" gradientUnits="userSpaceOnUse">
	<stop  offset="0" style="stop-color:#EBFAC1"/>
	<stop  offset="1" style="stop-color:#91A856"/>
</radialGradient>
<path fill="url(#SVGID_1_)" d="M550.383,1022c0,0-419.791-302.826-222.713-674.549C446.168,123.942,555.19,27,555.19,27
	S1055.093,677.515,550.383,1022z"/>
<path fill="#ADC378" d="M535.389,1004.942l-10.642-316.211L386.953,573.369l140.998,92.931V515.688l-101.716-99.786l101.716,83.763
	V347.451l-48.068-65.692l48.068,51.272c0,0,6.409-149.01,22.432-306.031v238.736l40.056-44.863l-41.659,80.113v160.225
	l56.079-52.874l-56.079,80.113c0,0,8.011,187.464,9.614,285.201l128.18-158.623L564.803,805.696l5.871,198.13
	c0.295,9.949-7.69,18.174-17.644,18.174h0C543.512,1022,535.709,1014.454,535.389,1004.942z"/>
<g>
</g>
<g>
</g>
<g>
</g>
<g>
</g>
<g>
</g>
<g>
</g>
<g>
</g>
<g>
</g>
<g>
</g>
<g>
</g>
<g>
</g>
<g>
</g>
<g>
</g>
<g>
</g>
<g>
</g>
</svg>
