<?xml version="1.0" encoding="iso-8859-1"?>
<!-- Generator: Adobe Illustrator 24.0.1, SVG Export Plug-In . SVG Version: 6.00 Build 0)  -->
<svg version="1.1" id="Layer_1" xmlns="http://www.w3.org/2000/svg" xmlns:xlink="http://www.w3.org/1999/xlink" x="0px" y="0px"
	 width="317.558px" height="823.287px" viewBox="0 0 317.558 823.287" enable-background="new 0 0 317.558 823.287"
	 xml:space="preserve">
<title>healthbar</title>
<g>
	<path fill="#BCCE86" d="M185.167,171.469h-52.096c-7.969,0-14.429,6.46-14.429,14.429v622.96c0,7.969,6.46,14.429,14.429,14.429
		h52.096c7.969,0,14.429-6.46,14.429-14.429v-622.96C199.596,177.929,193.136,171.469,185.167,171.469z M184.38,778.614
		c0,14.401-11.675,26.076-26.076,26.076h-0.001c-14.401,0-26.076-11.675-26.076-26.076V229.363
		c0-14.401,11.675-26.076,26.076-26.076h0.001c14.401,0,26.076,11.675,26.076,26.076V778.614z"/>
	<circle fill="#FFFFFF" stroke="#000000" stroke-miterlimit="10" cx="145.568" cy="170.946" r="32.102"/>
	<g>
		
			<linearGradient id="SVGID_1_" gradientUnits="userSpaceOnUse" x1="222.5533" y1="725.051" x2="239.7603" y2="577.5651" gradientTransform="matrix(1 0 0 -1 0 826)">
			<stop  offset="0" style="stop-color:#FCB4AE"/>
			<stop  offset="1" style="stop-color:#E57165"/>
		</linearGradient>
		<polygon fill="url(#SVGID_1_)" stroke="#E57165" stroke-width="6" stroke-miterlimit="10" points="184.643,45.073 236.486,16.643 
			253.348,70.779 189.402,110.92 		"/>
		
			<linearGradient id="SVGID_2_" gradientUnits="userSpaceOnUse" x1="105.1151" y1="711.349" x2="122.3221" y2="563.864" gradientTransform="matrix(1 0 0 -1 0 826)">
			<stop  offset="0" style="stop-color:#FCB4AE"/>
			<stop  offset="1" style="stop-color:#E57165"/>
		</linearGradient>
		<polygon fill="url(#SVGID_2_)" stroke="#E57165" stroke-width="6" stroke-miterlimit="10" points="132.915,45.635 81.072,17.204 
			64.21,71.34 128.156,111.481 		"/>
		
			<linearGradient id="SVGID_3_" gradientUnits="userSpaceOnUse" x1="209.2602" y1="601.584" x2="226.4672" y2="454.099" gradientTransform="matrix(1 0 0 -1 -138.882 720.287)">
			<stop  offset="0" style="stop-color:#FCB4AE"/>
			<stop  offset="1" style="stop-color:#E57165"/>
		</linearGradient>
		<path fill="url(#SVGID_3_)" stroke="#E57165" stroke-width="6" stroke-miterlimit="10" d="M158.001,204.509
			c0,0-45.154,86.963-153.858,11.706C4.143,216.215,55.987,139.287,158.001,204.509z"/>
		
			<linearGradient id="SVGID_4_" gradientUnits="userSpaceOnUse" x1="222.7338" y1="603.156" x2="239.9408" y2="455.671" gradientTransform="matrix(1 0 0 -1 -138.882 720.287)">
			<stop  offset="0" style="stop-color:#FCB4AE"/>
			<stop  offset="1" style="stop-color:#E57165"/>
		</linearGradient>
		<path fill="url(#SVGID_4_)" stroke="#E57165" stroke-width="6" stroke-miterlimit="10" d="M101.14,85.771
			C57.659,60.685,14.177,69.047,14.177,69.047C9.16,222.905,158.001,204.509,158.001,204.509S168.035,135.942,101.14,85.771z"/>
		
			<linearGradient id="SVGID_5_" gradientUnits="userSpaceOnUse" x1="362.652" y1="619.48" x2="379.858" y2="471.995" gradientTransform="matrix(1 0 0 -1 -138.882 720.287)">
			<stop  offset="0" style="stop-color:#FCB4AE"/>
			<stop  offset="1" style="stop-color:#E57165"/>
		</linearGradient>
		<path fill="url(#SVGID_5_)" stroke="#E57165" stroke-width="6" stroke-miterlimit="10" d="M159.557,203.947
			c0,0,45.154,86.963,153.857,11.707C313.418,215.654,261.571,138.725,159.557,203.947z"/>
		
			<linearGradient id="SVGID_6_" gradientUnits="userSpaceOnUse" x1="366.1693" y1="619.89" x2="383.3753" y2="472.405" gradientTransform="matrix(1 0 0 -1 -138.882 720.287)">
			<stop  offset="0" style="stop-color:#FCB4AE"/>
			<stop  offset="1" style="stop-color:#E57165"/>
		</linearGradient>
		<path fill="url(#SVGID_6_)" stroke="#E57165" stroke-width="6" stroke-miterlimit="10" d="M216.418,85.21
			c43.482-25.086,86.963-16.724,86.963-16.724c5.016,153.857-143.824,135.461-143.824,135.461S149.518,135.381,216.418,85.21z"/>
		
			<linearGradient id="SVGID_7_" gradientUnits="userSpaceOnUse" x1="294.4285" y1="610.0971" x2="311.3794" y2="464.7986" gradientTransform="matrix(1 0 0 -1 -138.882 720.287)">
			<stop  offset="0" style="stop-color:#FCB4AE"/>
			<stop  offset="1" style="stop-color:#E57165"/>
		</linearGradient>
		<path fill="url(#SVGID_7_)" stroke="#E57165" stroke-width="6" stroke-miterlimit="10" d="M158.001,204.509
			c0,0-122.083-83.963,0-199.356C158.001,5.153,268.377,109.187,158.001,204.509z"/>
	</g>
</g>
<g>
	<path fill="#FFFFFF" d="M138.055,412.296h30.456c2.485,0,4.5-2.015,4.5-4.5s-2.015-4.5-4.5-4.5h-30.456c-2.485,0-4.5,2.015-4.5,4.5
		S135.57,412.296,138.055,412.296z"/>
	
		<line fill="none" stroke="#FFFFFF" stroke-width="4" stroke-linecap="round" stroke-miterlimit="10" x1="135.649" y1="236.675" x2="154.89" y2="236.675"/>
	
		<line fill="none" stroke="#FFFFFF" stroke-width="4" stroke-linecap="round" stroke-miterlimit="10" x1="135.649" y1="279.84" x2="154.89" y2="279.84"/>
	
		<line fill="none" stroke="#FFFFFF" stroke-width="4" stroke-linecap="round" stroke-miterlimit="10" x1="136.17" y1="321.979" x2="155.41" y2="321.979"/>
	
		<line fill="none" stroke="#FFFFFF" stroke-width="4" stroke-linecap="round" stroke-miterlimit="10" x1="136.17" y1="365.145" x2="155.41" y2="365.145"/>
	<path fill="#FFFFFF" d="M137.988,618.671h30.456c2.485,0,4.5-2.015,4.5-4.5s-2.015-4.5-4.5-4.5h-30.456c-2.485,0-4.5,2.015-4.5,4.5
		S135.503,618.671,137.988,618.671z"/>
	
		<line fill="none" stroke="#FFFFFF" stroke-width="4" stroke-linecap="round" stroke-miterlimit="10" x1="136.583" y1="443.05" x2="155.823" y2="443.05"/>
	
		<line fill="none" stroke="#FFFFFF" stroke-width="4" stroke-linecap="round" stroke-miterlimit="10" x1="136.583" y1="486.215" x2="155.823" y2="486.215"/>
	
		<line fill="none" stroke="#FFFFFF" stroke-width="4" stroke-linecap="round" stroke-miterlimit="10" x1="137.103" y1="528.354" x2="156.343" y2="528.354"/>
	
		<line fill="none" stroke="#FFFFFF" stroke-width="4" stroke-linecap="round" stroke-miterlimit="10" x1="137.103" y1="571.52" x2="156.343" y2="571.52"/>
	
		<line fill="none" stroke="#FFFFFF" stroke-width="4" stroke-linecap="round" stroke-miterlimit="10" x1="135.718" y1="655.82" x2="154.958" y2="655.82"/>
	
		<line fill="none" stroke="#FFFFFF" stroke-width="4" stroke-linecap="round" stroke-miterlimit="10" x1="135.718" y1="698.985" x2="154.958" y2="698.985"/>
	
		<line fill="none" stroke="#FFFFFF" stroke-width="4" stroke-linecap="round" stroke-miterlimit="10" x1="136.238" y1="741.124" x2="155.479" y2="741.124"/>
	
		<line fill="none" stroke="#FFFFFF" stroke-width="4" stroke-linecap="round" stroke-miterlimit="10" x1="136.238" y1="784.29" x2="155.479" y2="784.29"/>
</g>
</svg>
