<?xml version="1.0" encoding="iso-8859-1"?>
<!-- Generator: Adobe Illustrator 24.0.1, SVG Export Plug-In . SVG Version: 6.00 Build 0)  -->
<svg version="1.1" id="Layer_6" xmlns="http://www.w3.org/2000/svg" xmlns:xlink="http://www.w3.org/1999/xlink" x="0px" y="0px"
	 width="1080px" height="1080px" viewBox="0 0 1080 1080" enable-background="new 0 0 1080 1080" xml:space="preserve">
<path fill="#E2CEC3" d="M555,348c0,0-54-76-151-40s-62,143-62,143s-70-33-133,37s0,141,0,141s-51,65,2,136s176,0,176,0s21,51,116,53
	s100-72,100-72s38,63,108,53s86-92,86-92s81,32,129-28s-32-144-32-144s72-64-4-146s-154-14-154-14s-4-72-80-77S555,348,555,348z"/>
<g>
</g>
<g>
</g>
<g>
</g>
<g>
</g>
<g>
</g>
<g>
</g>
<g>
</g>
<g>
</g>
<g>
</g>
<g>
</g>
<g>
</g>
<g>
</g>
<g>
</g>
<g>
</g>
<g>
</g>
</svg>
